<?xml version="1.0" encoding="UTF-8"?>
<!DOCTYPE svg PUBLIC "-//W3C//DTD SVG 1.1//EN" "http://www.w3.org/Graphics/SVG/1.1/DTD/svg11.dtd">
<svg version="1.2" width="75.8mm" height="15.33mm" viewBox="805 3703 7580 1533" preserveAspectRatio="xMidYMid" fill-rule="evenodd" stroke-width="28.222" stroke-linejoin="round" xmlns="http://www.w3.org/2000/svg" xmlns:ooo="http://xml.openoffice.org/svg/export" xmlns:xlink="http://www.w3.org/1999/xlink" xmlns:presentation="http://sun.com/xmlns/staroffice/presentation" xmlns:smil="http://www.w3.org/2001/SMIL20/" xmlns:anim="urn:oasis:names:tc:opendocument:xmlns:animation:1.0" xml:space="preserve">
 <defs class="EmbeddedBulletChars">
  <g id="bullet-char-template-57356" transform="scale(0.00048828125,-0.00048828125)">
   <path d="M 580,1141 L 1163,571 580,0 -4,571 580,1141 Z"/>
  </g>
  <g id="bullet-char-template-57354" transform="scale(0.00048828125,-0.00048828125)">
   <path d="M 8,1128 L 1137,1128 1137,0 8,0 8,1128 Z"/>
  </g>
  <g id="bullet-char-template-10146" transform="scale(0.00048828125,-0.00048828125)">
   <path d="M 174,0 L 602,739 174,1481 1456,739 174,0 Z M 1358,739 L 309,1346 659,739 1358,739 Z"/>
  </g>
  <g id="bullet-char-template-10132" transform="scale(0.00048828125,-0.00048828125)">
   <path d="M 2015,739 L 1276,0 717,0 1260,543 174,543 174,936 1260,936 717,1481 1274,1481 2015,739 Z"/>
  </g>
  <g id="bullet-char-template-10007" transform="scale(0.00048828125,-0.00048828125)">
   <path d="M 0,-2 C -7,14 -16,27 -25,37 L 356,567 C 262,823 215,952 215,954 215,979 228,992 255,992 264,992 276,990 289,987 310,991 331,999 354,1012 L 381,999 492,748 772,1049 836,1024 860,1049 C 881,1039 901,1025 922,1006 886,937 835,863 770,784 769,783 710,716 594,584 L 774,223 C 774,196 753,168 711,139 L 727,119 C 717,90 699,76 672,76 641,76 570,178 457,381 L 164,-76 C 142,-110 111,-127 72,-127 30,-127 9,-110 8,-76 1,-67 -2,-52 -2,-32 -2,-23 -1,-13 0,-2 Z"/>
  </g>
  <g id="bullet-char-template-10004" transform="scale(0.00048828125,-0.00048828125)">
   <path d="M 285,-33 C 182,-33 111,30 74,156 52,228 41,333 41,471 41,549 55,616 82,672 116,743 169,778 240,778 293,778 328,747 346,684 L 369,508 C 377,444 397,411 428,410 L 1163,1116 C 1174,1127 1196,1133 1229,1133 1271,1133 1292,1118 1292,1087 L 1292,965 C 1292,929 1282,901 1262,881 L 442,47 C 390,-6 338,-33 285,-33 Z"/>
  </g>
  <g id="bullet-char-template-9679" transform="scale(0.00048828125,-0.00048828125)">
   <path d="M 813,0 C 632,0 489,54 383,161 276,268 223,411 223,592 223,773 276,916 383,1023 489,1130 632,1184 813,1184 992,1184 1136,1130 1245,1023 1353,916 1407,772 1407,592 1407,412 1353,268 1245,161 1136,54 992,0 813,0 Z"/>
  </g>
  <g id="bullet-char-template-8226" transform="scale(0.00048828125,-0.00048828125)">
   <path d="M 346,457 C 273,457 209,483 155,535 101,586 74,649 74,723 74,796 101,859 155,911 209,963 273,989 346,989 419,989 480,963 531,910 582,859 608,796 608,723 608,648 583,586 532,535 482,483 420,457 346,457 Z"/>
  </g>
  <g id="bullet-char-template-8211" transform="scale(0.00048828125,-0.00048828125)">
   <path d="M -4,459 L 1135,459 1135,606 -4,606 -4,459 Z"/>
  </g>
  <g id="bullet-char-template-61548" transform="scale(0.00048828125,-0.00048828125)">
   <path d="M 173,740 C 173,903 231,1043 346,1159 462,1274 601,1332 765,1332 928,1332 1067,1274 1183,1159 1299,1043 1357,903 1357,740 1357,577 1299,437 1183,322 1067,206 928,148 765,148 601,148 462,206 346,322 231,437 173,577 173,740 Z"/>
  </g>
 </defs>
 <g class="Page">
  <g class="com.sun.star.drawing.ClosedBezierShape">
   <g id="id3">
    <rect class="BoundingBox" stroke="none" fill="none" x="805" y="3703" width="7580" height="1533"/>
    <path fill="rgb(255,255,255)" stroke="none" d="M 8282,4570 C 8290,4533 8294,4498 8294,4465 8294,4395 8273,4360 8231,4359 8187,4358 8137,4389 8080,4449 8024,4511 7975,4586 7934,4676 7884,4784 7858,4885 7858,4978 7858,5026 7869,5056 7890,5067 7898,5071 7907,5073 7917,5073 7973,5073 8044,5018 8129,4906 8208,4804 8254,4721 8266,4658 8264,4631 8263,4613 8265,4604 8266,4599 8272,4588 8282,4570 Z M 8282,4570 L 8282,4570 Z M 1968,3974 C 1925,3920 1875,3876 1819,3843 1762,3810 1700,3786 1636,3771 1570,3756 1504,3749 1437,3749 1351,3749 1272,3761 1202,3783 1132,3806 1071,3838 1021,3880 970,3921 931,3971 903,4028 875,4086 861,4150 861,4220 861,4287 873,4345 895,4392 916,4439 946,4480 982,4511 1019,4543 1060,4569 1106,4589 1152,4609 1199,4626 1248,4639 1297,4652 1344,4663 1390,4673 1436,4683 1478,4694 1514,4705 1551,4717 1580,4731 1602,4748 1623,4765 1635,4787 1635,4814 1635,4835 1628,4855 1613,4874 1597,4893 1573,4908 1540,4920 1507,4932 1463,4938 1410,4938 1337,4938 1270,4923 1209,4893 1148,4863 1095,4819 1050,4764 L 805,4955 C 842,5010 885,5055 931,5091 978,5127 1028,5155 1081,5176 1135,5197 1192,5212 1251,5221 1311,5229 1373,5234 1437,5234 1520,5233 1595,5224 1660,5207 1726,5189 1783,5165 1831,5134 1879,5103 1919,5067 1951,5027 1982,4986 2006,4943 2021,4897 2036,4851 2044,4804 2044,4757 2044,4684 2032,4623 2010,4573 1988,4522 1958,4481 1921,4447 1884,4414 1842,4388 1795,4368 1749,4348 1701,4331 1651,4319 1602,4307 1553,4296 1507,4287 1461,4278 1419,4268 1381,4257 1344,4246 1314,4232 1292,4215 1270,4198 1259,4175 1259,4146 1259,4124 1266,4106 1281,4091 1295,4075 1315,4064 1341,4056 1366,4048 1397,4044 1431,4044 1493,4044 1549,4054 1597,4074 1646,4093 1690,4126 1730,4171 L 1968,3974 Z M 1968,3974 L 1968,3974 Z M 2080,4430 L 2240,4430 2240,4961 C 2240,5006 2245,5046 2256,5079 2267,5113 2286,5142 2312,5165 2338,5188 2373,5205 2418,5216 2463,5228 2519,5234 2587,5234 2613,5234 2643,5231 2675,5228 2709,5225 2741,5220 2775,5215 L 2775,4978 C 2766,4980 2757,4982 2747,4984 2737,4986 2727,4988 2718,4989 2709,4991 2701,4991 2694,4991 2675,4991 2658,4989 2644,4983 2629,4977 2618,4968 2609,4955 2601,4943 2596,4926 2596,4906 L 2596,4430 2759,4430 2759,4199 2596,4199 2596,3846 2240,3846 2240,4199 2080,4199 2080,4430 Z M 2080,4430 L 2080,4430 Z M 3174,4516 C 3181,4491 3190,4469 3200,4450 3211,4432 3226,4417 3244,4408 3262,4398 3286,4393 3314,4392 3336,4392 3356,4395 3374,4402 3392,4408 3406,4418 3417,4433 3427,4448 3433,4469 3433,4494 L 3433,4577 C 3375,4577 3316,4581 3259,4589 3201,4596 3147,4608 3096,4625 3045,4641 2999,4663 2960,4691 2920,4719 2889,4753 2866,4793 2844,4834 2832,4881 2832,4936 2832,4985 2839,5027 2853,5062 2867,5096 2886,5125 2908,5147 2931,5170 2956,5187 2982,5200 3009,5212 3035,5221 3061,5226 3086,5231 3109,5234 3129,5234 3166,5233 3203,5229 3240,5219 3276,5210 3311,5197 3344,5179 3377,5162 3408,5141 3435,5116 3436,5133 3438,5149 3441,5165 3443,5180 3447,5194 3450,5207 L 3816,5207 C 3807,5194 3800,5178 3794,5159 3789,5141 3785,5121 3782,5101 3780,5082 3778,5063 3777,5047 3776,5030 3776,5017 3776,5008 L 3776,4469 C 3776,4436 3772,4406 3765,4376 3757,4347 3743,4320 3724,4296 3705,4271 3679,4249 3645,4231 3611,4213 3568,4198 3516,4188 3464,4178 3401,4173 3327,4173 3277,4173 3228,4177 3180,4186 3132,4196 3087,4211 3046,4232 3004,4253 2969,4282 2940,4318 2911,4354 2891,4399 2879,4453 L 3174,4516 Z M 3174,4516 L 3174,4516 Z M 3431,4957 C 3406,4975 3382,4989 3359,4999 3336,5009 3312,5014 3286,5014 3276,5014 3265,5012 3253,5008 3240,5004 3228,4997 3217,4988 3205,4979 3195,4968 3188,4954 3180,4941 3176,4925 3176,4906 3176,4883 3182,4862 3193,4845 3204,4828 3218,4814 3237,4802 3255,4791 3275,4782 3297,4775 3320,4768 3343,4762 3366,4757 3389,4753 3411,4750 3431,4747 L 3431,4957 Z M 3431,4957 L 3431,4957 Z M 3920,5207 L 4276,5207 4276,4564 C 4302,4542 4328,4525 4354,4513 4380,4502 4410,4496 4442,4496 4468,4495 4497,4499 4530,4508 4562,4516 4597,4529 4635,4547 L 4635,4173 C 4601,4175 4567,4180 4532,4189 4498,4197 4465,4209 4433,4225 4402,4240 4373,4259 4346,4281 4320,4303 4298,4328 4280,4356 L 4276,4356 4276,4199 3920,4199 3920,5207 Z M 3920,5207 L 3920,5207 Z M 4729,5207 L 5085,5207 5085,4912 5198,4795 5202,4795 5382,5207 5792,5207 5690,5000 C 5818,4791 5934,4610 6037,4457 6209,4204 6311,4085 6343,4100 6346,4101 6347,4106 6347,4113 6347,4137 6330,4207 6296,4325 6214,4607 6153,4812 6114,4942 6108,4961 6105,4980 6105,4997 6105,5045 6124,5070 6160,5071 6192,5071 6230,5032 6272,4954 6362,4786 6449,4634 6531,4499 6644,4310 6710,4218 6730,4222 6737,4223 6740,4234 6740,4255 6740,4285 6734,4323 6723,4370 6697,4477 6670,4582 6644,4687 6617,4802 6604,4897 6604,4973 6604,5015 6608,5053 6615,5087 6630,5160 6670,5197 6737,5197 6759,5198 6779,5193 6796,5184 6813,5175 6820,5165 6817,5153 6813,5134 6801,5124 6781,5123 6779,5123 6775,5124 6769,5125 6763,5124 6759,5124 6755,5124 6728,5124 6709,5109 6700,5079 6691,5049 6686,5013 6686,4972 6686,4903 6699,4813 6725,4700 6738,4646 6764,4544 6804,4395 6825,4322 6835,4262 6835,4216 6835,4155 6817,4122 6782,4117 6740,4111 6695,4134 6648,4186 6609,4227 6559,4298 6497,4401 6433,4509 6369,4616 6306,4723 6257,4805 6230,4846 6226,4845 6225,4844 6225,4842 6225,4840 6225,4836 6241,4785 6273,4688 6336,4499 6383,4344 6413,4225 6429,4163 6437,4116 6437,4083 6437,4037 6423,4011 6395,4004 6387,4002 6378,4001 6369,4001 6323,4000 6271,4034 6211,4101 6152,4168 6085,4257 6011,4367 5938,4477 5864,4587 5791,4697 5775,4720 5752,4753 5722,4795 5704,4816 5686,4838 5668,4860 5701,4770 5733,4679 5765,4588 5814,4436 5852,4296 5877,4168 5888,4113 5894,4061 5894,4015 5894,3918 5871,3842 5825,3788 5785,3741 5729,3714 5659,3706 5640,3704 5620,3703 5600,3703 5443,3702 5295,3751 5155,3855 5130,3873 5107,3891 5085,3911 L 5085,3776 4729,3776 4729,5207 Z M 4729,5207 L 4729,5207 Z M 5601,4820 L 5452,4517 5762,4158 5424,4158 5085,4575 5085,4029 C 5116,3995 5151,3962 5189,3930 5322,3819 5461,3764 5605,3766 5619,3766 5632,3767 5645,3768 5752,3778 5806,3865 5806,4029 5806,4072 5802,4111 5795,4146 5758,4314 5720,4461 5679,4587 5676,4599 5650,4676 5601,4820 Z M 5601,4820 L 5601,4820 Z M 8383,4596 C 8383,4613 8379,4633 8370,4655 8311,4794 8282,4899 8282,4970 8282,5014 8294,5042 8317,5052 8328,5055 8344,5063 8364,5075 8367,5078 8368,5082 8368,5085 8368,5096 8364,5105 8356,5112 8347,5122 8334,5127 8319,5127 8309,5127 8298,5124 8286,5118 8239,5098 8216,5048 8216,4968 8216,4950 8217,4928 8220,4902 8168,4973 8115,5029 8060,5072 8000,5118 7945,5141 7894,5140 7883,5140 7872,5138 7861,5135 7805,5121 7777,5069 7777,4979 7777,4889 7801,4791 7847,4685 7897,4573 7953,4482 8015,4411 8089,4327 8163,4285 8236,4286 8283,4286 8318,4305 8342,4341 8363,4373 8374,4414 8374,4464 8374,4501 8368,4536 8357,4570 8365,4574 8373,4582 8383,4596 Z M 8383,4596 L 8383,4596 Z M 7794,4605 C 7770,4656 7746,4706 7722,4758 7689,4840 7675,4912 7681,4974 7683,4998 7692,5010 7710,5011 7714,5011 7720,5010 7726,5007 7733,5004 7737,5003 7740,5003 7746,5003 7753,5009 7761,5021 7766,5032 7759,5045 7741,5061 7722,5076 7702,5084 7680,5084 7647,5083 7625,5064 7612,5025 7606,5005 7603,4982 7603,4955 7603,4876 7635,4749 7700,4573 7728,4536 7754,4515 7780,4511 7797,4514 7806,4527 7806,4552 7806,4570 7802,4587 7794,4605 Z M 7794,4605 L 7794,4605 Z M 7890,4296 C 7876,4322 7854,4337 7824,4343 7817,4344 7811,4344 7806,4344 7777,4343 7762,4329 7762,4301 7762,4291 7764,4280 7767,4267 7778,4235 7804,4219 7847,4219 7858,4219 7869,4224 7880,4233 7891,4242 7897,4253 7897,4268 7897,4277 7894,4286 7890,4296 Z M 7890,4296 L 7890,4296 Z M 7442,4678 C 7456,4627 7464,4583 7464,4546 7464,4473 7439,4435 7388,4434 7340,4434 7282,4469 7214,4540 7147,4610 7098,4684 7068,4762 7036,4845 7020,4915 7020,4970 7020,5025 7038,5056 7074,5061 7111,5066 7156,5047 7210,5005 7254,4971 7290,4932 7318,4889 7372,4808 7413,4738 7442,4678 Z M 7442,4678 L 7442,4678 Z M 7745,4019 C 7768,4023 7780,4039 7780,4068 7780,4093 7767,4137 7743,4199 7732,4227 7686,4333 7605,4516 7531,4684 7494,4827 7494,4945 7494,4973 7496,5000 7501,5025 7504,5038 7517,5046 7542,5047 7567,5048 7581,5054 7585,5066 7587,5075 7582,5086 7569,5097 7556,5109 7539,5114 7519,5114 7504,5114 7490,5110 7476,5102 7439,5081 7420,5024 7420,4931 7420,4909 7421,4883 7423,4853 7372,4933 7320,4997 7265,5046 7196,5107 7131,5136 7069,5131 6991,5125 6951,5066 6951,4952 6951,4927 6954,4901 6958,4874 6979,4756 7034,4643 7123,4532 7218,4413 7309,4356 7396,4361 7466,4365 7512,4397 7535,4457 7578,4349 7625,4227 7674,4090 7675,4041 7693,4017 7728,4018 7733,4018 7739,4018 7745,4019 Z M 7745,4019 L 7745,4019 Z M 7220,4164 C 7183,4196 7118,4263 7025,4366 7016,4376 7008,4381 7003,4381 6997,4381 6991,4378 6984,4373 6976,4368 6973,4363 6973,4357 6973,4353 6976,4347 6982,4337 7031,4268 7088,4196 7154,4123 7163,4112 7171,4107 7177,4107 7185,4108 7194,4111 7206,4118 7227,4128 7238,4137 7238,4145 7238,4148 7232,4154 7220,4164 Z M 7220,4164 L 7220,4164 Z M 6965,4595 C 6941,4645 6917,4696 6894,4747 6861,4830 6847,4902 6852,4964 6854,4987 6864,5000 6881,5001 6886,5001 6891,4999 6898,4997 6904,4994 6909,4993 6911,4993 6918,4993 6925,4999 6932,5011 6938,5022 6931,5035 6912,5050 6893,5066 6873,5074 6851,5074 6819,5073 6796,5054 6784,5015 6777,4995 6774,4971 6774,4943 6774,4859 6807,4733 6872,4563 6890,4515 6916,4494 6951,4500 6969,4503 6977,4517 6977,4542 6977,4559 6973,4577 6965,4595 Z"/>
   </g>
  </g>
 </g>
</svg>